<mxfile host="app.diagrams.net" modified="2021-04-23T07:33:49.104Z" agent="5.0 (Windows NT 10.0; WOW64) AppleWebKit/537.36 (KHTML, like Gecko) Chrome/86.0.4240.198 Safari/537.36" etag="y-bGCE4vbuEATakG9a1H" version="14.6.5" type="github">
  <diagram id="CmAvgeXvqH02F8P-23ag" name="Page-1">
    <mxGraphModel dx="1376" dy="725" grid="1" gridSize="10" guides="1" tooltips="1" connect="1" arrows="1" fold="1" page="1" pageScale="1" pageWidth="827" pageHeight="1169" math="0" shadow="0">
      <root>
        <mxCell id="0" />
        <mxCell id="1" parent="0" />
        <mxCell id="xDhsAaX6MLnHaHsnjZec-21" value="" style="edgeStyle=orthogonalEdgeStyle;rounded=0;orthogonalLoop=1;jettySize=auto;html=1;" edge="1" parent="1" source="xDhsAaX6MLnHaHsnjZec-5" target="xDhsAaX6MLnHaHsnjZec-19">
          <mxGeometry relative="1" as="geometry" />
        </mxCell>
        <mxCell id="xDhsAaX6MLnHaHsnjZec-5" value="密码在数据段PASSWORD&lt;br&gt;输入区为数据段BUF&lt;br&gt;BUF地址在DX&lt;br&gt;CX= 6" style="ellipse;whiteSpace=wrap;html=1;" vertex="1" parent="1">
          <mxGeometry x="500" y="50" width="180" height="100" as="geometry" />
        </mxCell>
        <mxCell id="xDhsAaX6MLnHaHsnjZec-9" value="" style="edgeStyle=orthogonalEdgeStyle;rounded=0;orthogonalLoop=1;jettySize=auto;html=1;" edge="1" parent="1" source="xDhsAaX6MLnHaHsnjZec-6" target="xDhsAaX6MLnHaHsnjZec-8">
          <mxGeometry relative="1" as="geometry" />
        </mxCell>
        <mxCell id="xDhsAaX6MLnHaHsnjZec-6" value="0AH-&amp;gt;AH&lt;br&gt;INT 21H" style="rounded=1;whiteSpace=wrap;html=1;" vertex="1" parent="1">
          <mxGeometry x="320" y="180" width="120" height="60" as="geometry" />
        </mxCell>
        <mxCell id="xDhsAaX6MLnHaHsnjZec-11" value="" style="edgeStyle=orthogonalEdgeStyle;rounded=0;orthogonalLoop=1;jettySize=auto;html=1;" edge="1" parent="1" source="xDhsAaX6MLnHaHsnjZec-8" target="xDhsAaX6MLnHaHsnjZec-10">
          <mxGeometry relative="1" as="geometry" />
        </mxCell>
        <mxCell id="xDhsAaX6MLnHaHsnjZec-8" value="SI=OFFEST BUF+2&lt;br&gt;DI=OFFEST PASSWORD" style="rounded=1;whiteSpace=wrap;html=1;" vertex="1" parent="1">
          <mxGeometry x="320" y="290" width="120" height="60" as="geometry" />
        </mxCell>
        <mxCell id="xDhsAaX6MLnHaHsnjZec-13" value="" style="edgeStyle=orthogonalEdgeStyle;rounded=0;orthogonalLoop=1;jettySize=auto;html=1;" edge="1" parent="1" source="xDhsAaX6MLnHaHsnjZec-10" target="xDhsAaX6MLnHaHsnjZec-12">
          <mxGeometry relative="1" as="geometry" />
        </mxCell>
        <mxCell id="xDhsAaX6MLnHaHsnjZec-10" value="CLD = 1&lt;br&gt;REPE CMPSB" style="rounded=1;whiteSpace=wrap;html=1;" vertex="1" parent="1">
          <mxGeometry x="320" y="400" width="120" height="60" as="geometry" />
        </mxCell>
        <mxCell id="xDhsAaX6MLnHaHsnjZec-14" style="edgeStyle=orthogonalEdgeStyle;rounded=0;orthogonalLoop=1;jettySize=auto;html=1;entryX=0;entryY=0.5;entryDx=0;entryDy=0;" edge="1" parent="1" source="xDhsAaX6MLnHaHsnjZec-12" target="xDhsAaX6MLnHaHsnjZec-19">
          <mxGeometry relative="1" as="geometry">
            <mxPoint x="300" y="180" as="targetPoint" />
            <Array as="points">
              <mxPoint x="270" y="550" />
              <mxPoint x="270" y="100" />
            </Array>
          </mxGeometry>
        </mxCell>
        <mxCell id="xDhsAaX6MLnHaHsnjZec-15" value="NO" style="edgeLabel;html=1;align=center;verticalAlign=middle;resizable=0;points=[];" vertex="1" connectable="0" parent="xDhsAaX6MLnHaHsnjZec-14">
          <mxGeometry x="-0.6111" y="-1" relative="1" as="geometry">
            <mxPoint as="offset" />
          </mxGeometry>
        </mxCell>
        <mxCell id="xDhsAaX6MLnHaHsnjZec-17" value="" style="edgeStyle=orthogonalEdgeStyle;rounded=0;orthogonalLoop=1;jettySize=auto;html=1;" edge="1" parent="1" source="xDhsAaX6MLnHaHsnjZec-12" target="xDhsAaX6MLnHaHsnjZec-16">
          <mxGeometry relative="1" as="geometry" />
        </mxCell>
        <mxCell id="xDhsAaX6MLnHaHsnjZec-18" value="YES" style="edgeLabel;html=1;align=center;verticalAlign=middle;resizable=0;points=[];" vertex="1" connectable="0" parent="xDhsAaX6MLnHaHsnjZec-17">
          <mxGeometry x="-0.25" relative="1" as="geometry">
            <mxPoint x="10" as="offset" />
          </mxGeometry>
        </mxCell>
        <mxCell id="xDhsAaX6MLnHaHsnjZec-12" value="Z = 0" style="rhombus;whiteSpace=wrap;html=1;" vertex="1" parent="1">
          <mxGeometry x="320" y="510" width="120" height="80" as="geometry" />
        </mxCell>
        <mxCell id="xDhsAaX6MLnHaHsnjZec-16" value="输出正确信息" style="rounded=1;whiteSpace=wrap;html=1;" vertex="1" parent="1">
          <mxGeometry x="520" y="520" width="120" height="60" as="geometry" />
        </mxCell>
        <mxCell id="xDhsAaX6MLnHaHsnjZec-20" value="" style="edgeStyle=orthogonalEdgeStyle;rounded=0;orthogonalLoop=1;jettySize=auto;html=1;" edge="1" parent="1" source="xDhsAaX6MLnHaHsnjZec-19" target="xDhsAaX6MLnHaHsnjZec-6">
          <mxGeometry relative="1" as="geometry" />
        </mxCell>
        <mxCell id="xDhsAaX6MLnHaHsnjZec-19" value="请求输入信息" style="rounded=1;whiteSpace=wrap;html=1;" vertex="1" parent="1">
          <mxGeometry x="320" y="70" width="120" height="60" as="geometry" />
        </mxCell>
      </root>
    </mxGraphModel>
  </diagram>
</mxfile>
